<svg width="1277" height="777" viewBox="0 0 1277 777" fill="none" xmlns="http://www.w3.org/2000/svg">
<path d="M334.911 1.66195C268.296 10.229 205.434 34.9933 156.511 72.3403C122.467 98.1754 107.857 111.829 87.3497 137.397C39.9015 196.295 10.548 266.706 1.70175 342.471C-1.11297 366.834 -0.308763 421.047 3.17613 442.867C10.0119 486.238 20.7346 520.64 40.0356 560.262C70.7294 623.445 116.703 676.587 173.668 714.604C240.953 759.447 322.982 781.668 401.928 776.18C487.308 770.29 563.44 737.494 627.106 679.131L637.963 669.091L652.304 681.54C701.897 724.376 751.222 750.88 809.392 765.471C907.372 790.235 1006.56 774.707 1095.15 720.895C1130.54 699.344 1169.54 663.335 1197.02 626.657C1246.75 560.262 1273.82 483.025 1276.77 399.362C1280.12 300.171 1246.75 204.729 1182.54 129.767C1120.08 56.8126 1033.9 11.5676 937.127 1.12652C917.826 -1.01528 869.976 0.0555877 850.943 3.00054C811.269 9.29198 774.275 21.0717 737.684 39.5445C705.784 55.4739 679.781 74.3482 651.634 101.79L639.169 113.971L626.838 102.191C568.131 46.3714 506.609 15.7173 428.065 3.13443C409.568 0.0555877 353.944 -0.747564 334.911 1.66195ZM418.012 13.9771C485.432 22.2765 548.83 49.9856 598.825 92.821C605.124 98.3093 615.043 107.144 620.672 112.499L631.127 122.27L589.174 174.61C566.254 203.39 534.89 242.611 519.744 261.619C504.464 280.628 476.585 315.565 457.686 339.125C438.788 362.684 423.508 382.496 423.91 383.299C424.178 383.968 443.881 410.472 467.605 442.197C491.463 473.788 523.229 516.624 538.375 537.238C553.521 557.853 577.647 590.649 591.989 610.192C606.331 629.736 620.806 648.878 624.157 652.894L630.323 660.123L618.394 671.367C565.584 720.761 495.886 753.29 422.033 763.061C405.279 765.203 351.263 765.203 334.911 762.927C327.941 761.99 313.734 759.447 303.413 757.171C151.82 724.509 34.9423 594.263 13.6308 434.166C10.9501 413.15 10.548 362.149 13.0947 341.802C25.962 236.721 78.9055 144.893 162.007 82.7815C200.743 53.8676 241.489 34.4578 288.535 22.5442C334.241 10.8983 373.111 8.35494 418.012 13.9771ZM945.437 13.9771C1024.52 23.749 1098.24 60.2929 1156.54 118.924C1184.82 147.302 1206.67 177.956 1225.57 215.973C1251.71 268.714 1263.37 316.234 1264.71 375.936C1265.78 418.638 1263.23 441.93 1253.72 481.151C1241.39 531.884 1214.18 587.168 1181.07 628.264C1169.54 642.721 1138.85 673.509 1123.7 686.091C1077.6 724.108 1013.93 752.219 952.139 761.723C924.528 765.872 876.812 765.872 849.335 761.723C775.884 750.345 712.218 720.226 659.006 671.635L647.345 660.926L657.666 648.61C663.429 641.784 678.575 621.838 691.442 604.169C748.005 526.262 830.168 413.953 847.726 390.527C850.273 387.181 852.283 383.566 852.283 382.763C852.283 381.826 845.716 373.125 837.808 363.487C829.766 353.715 808.32 326.809 789.958 303.652C771.729 280.494 753.5 257.604 749.747 252.785C745.86 247.966 729.642 227.217 713.558 206.603C697.474 185.988 675.894 158.681 665.708 145.83C655.521 132.979 647.211 122.137 647.345 121.735C647.345 121.333 654.717 114.105 663.697 105.806C709.269 63.6394 757.119 37.5366 818.239 21.8749C834.725 17.5913 866.625 12.5047 883.111 11.4338C895.845 10.6306 928.683 11.9692 945.437 13.9771ZM652.572 147.302C659.542 156.271 668.925 168.185 673.482 173.673C677.905 179.295 692.381 197.634 705.516 214.634C738.086 256.399 757.655 281.297 765.429 290.935L771.863 298.966L638.901 299.368C565.852 299.502 505.805 299.368 505.537 299.1C504.732 298.297 637.829 130.971 639.169 130.971C639.571 131.105 645.603 138.468 652.572 147.302ZM723.208 347.022L743.448 376.606L639.571 377.007C582.338 377.141 535.292 377.007 534.89 376.606C534.22 375.936 542.932 362.684 568.801 324.802L577.647 311.683L637.56 311.415L697.474 311.014L700.154 314.227C701.629 316.101 711.95 330.825 723.208 347.022ZM562.769 312.353C562.769 312.754 553.119 327.479 541.324 345.148L519.878 377.275H480.874C443.211 377.275 442.004 377.141 443.747 374.732C444.685 373.393 456.346 358.668 469.615 341.936L493.742 311.683H528.323C547.221 311.683 562.769 311.951 562.769 312.353ZM806.042 341.936C819.311 358.534 830.972 373.393 832.044 374.732C833.787 377.275 832.848 377.275 795.587 377.275H757.253L740.231 352.109C730.848 338.322 721.198 324.4 718.919 321.053C716.641 317.707 714.228 314.227 713.692 313.29C712.888 312.085 719.992 311.683 747.335 311.683H781.915L806.042 341.936ZM523.229 395.346C526.848 403.512 574.43 519.167 593.999 567.357C601.103 584.625 609.011 603.901 611.692 610.059C614.239 616.216 616.249 621.838 616.115 622.508C615.847 623.043 612.094 618.626 607.671 612.602C592.793 591.854 528.859 505.246 503.794 471.647C476.317 434.969 449.778 399.094 445.087 392.267L442.004 387.984H481.008H520.012L523.229 395.346ZM743.716 389.055C743.716 390.393 710.877 471.781 677.101 553.971C667.852 576.46 655.789 605.909 650.294 619.563C644.798 633.217 639.839 644.729 639.303 645.398C638.231 646.469 629.786 626.122 584.885 515.821C569.873 479.009 552.181 435.504 545.479 419.173C538.777 402.708 533.282 389.055 533.282 388.653C533.282 388.252 580.596 387.984 638.499 387.984C696.402 387.984 743.716 388.519 743.716 389.055ZM833.117 389.992C832.312 391.866 803.495 431.622 767.172 481.017C757.923 493.466 744.922 511.269 738.22 520.506C695.999 578.869 660.078 627.594 659.676 627.193C659.542 626.925 662.759 618.76 666.78 608.854C670.935 598.948 678.575 579.94 683.936 566.688C689.432 553.436 701.495 523.852 710.877 501.096C720.26 478.206 734.199 444.071 741.839 425.063C749.479 405.921 756.181 389.858 756.583 389.189C756.985 388.519 774.275 387.984 795.587 387.984C828.559 387.984 833.653 388.252 833.117 389.992Z" fill="black"/>
</svg>
