<?xml version="1.0" standalone="no"?>
<!DOCTYPE svg PUBLIC "-//W3C//DTD SVG 20010904//EN"
 "http://www.w3.org/TR/2001/REC-SVG-20010904/DTD/svg10.dtd">
<svg version="1.0" xmlns="http://www.w3.org/2000/svg"
 width="989.000000pt" height="608.000000pt" viewBox="0 0 989.000000 608.000000"
 preserveAspectRatio="xMidYMid meet">

<g transform="translate(0.000000,608.000000) scale(0.100000,-0.100000)"
fill="#000000" stroke="none">
<path d="M2650 5916 c-497 -64 -966 -249 -1331 -528 -254 -193 -363 -295 -516
-486 -354 -440 -573 -966 -639 -1532 -21 -182 -15 -587 11 -750 51 -324 131
-581 275 -877 229 -472 572 -869 997 -1153 502 -335 1114 -501 1703 -460 637
44 1205 289 1680 725 l81 75 107 -93 c370 -320 738 -518 1172 -627 731 -185
1471 -69 2132 333 264 161 555 430 760 704 371 496 573 1073 595 1698 25 741
-224 1454 -703 2014 -466 545 -1109 883 -1831 961 -144 16 -501 8 -643 -14
-296 -47 -572 -135 -845 -273 -238 -119 -432 -260 -642 -465 l-93 -91 -92 88
c-438 417 -897 646 -1483 740 -138 23 -553 29 -695 11z m620 -92 c503 -62 976
-269 1349 -589 47 -41 121 -107 163 -147 l78 -73 -313 -391 c-171 -215 -405
-508 -518 -650 -114 -142 -322 -403 -463 -579 -141 -176 -255 -324 -252 -330
2 -5 149 -203 326 -440 178 -236 415 -556 528 -710 113 -154 293 -399 400
-545 107 -146 215 -289 240 -319 l46 -54 -89 -84 c-394 -369 -914 -612 -1465
-685 -125 -16 -528 -16 -650 1 -52 7 -158 26 -235 43 -1131 244 -2003 1217
-2162 2413 -20 157 -23 538 -4 690 96 785 491 1471 1111 1935 289 216 593 361
944 450 341 87 631 106 966 64z m3935 0 c590 -73 1140 -346 1575 -784 211
-212 374 -441 515 -725 195 -394 282 -749 292 -1195 8 -319 -11 -493 -82 -786
-92 -379 -295 -792 -542 -1099 -86 -108 -315 -338 -428 -432 -344 -284 -819
-494 -1280 -565 -206 -31 -562 -31 -767 0 -548 85 -1023 310 -1420 673 l-87
80 77 92 c43 51 156 200 252 332 422 582 1035 1421 1166 1596 19 25 34 52 34
58 0 7 -49 72 -108 144 -60 73 -220 274 -357 447 -136 173 -272 344 -300 380
-29 36 -150 191 -270 345 -120 154 -281 358 -357 454 -76 96 -138 177 -137
180 0 3 55 57 122 119 340 315 697 510 1153 627 123 32 361 70 484 78 95 6
340 -4 465 -19z m-2185 -996 c52 -67 122 -156 156 -197 33 -42 141 -179 239
-306 243 -312 389 -498 447 -570 l48 -60 -992 -3 c-545 -1 -993 0 -995 2 -6 6
987 1256 997 1256 3 -1 48 -56 100 -122z m527 -1492 l151 -221 -775 -3 c-427
-1 -778 0 -781 3 -5 5 60 104 253 387 l66 98 447 2 447 3 20 -24 c11 -14 88
-124 172 -245z m-1197 259 c0 -3 -72 -113 -160 -245 l-160 -240 -291 0 c-281
0 -290 1 -277 19 7 10 94 120 193 245 l180 226 258 0 c141 0 257 -2 257 -5z
m1815 -221 c99 -124 186 -235 194 -245 13 -19 6 -19 -272 -19 l-286 0 -127
188 c-70 103 -142 207 -159 232 -17 25 -35 51 -39 58 -6 9 47 12 251 12 l258
0 180 -226z m-2110 -399 c27 -61 382 -925 528 -1285 53 -129 112 -273 132
-319 19 -46 34 -88 33 -93 -2 -4 -30 29 -63 74 -111 155 -588 802 -775 1053
-205 274 -403 542 -438 593 l-23 32 291 0 291 0 24 -55z m1645 47 c0 -10 -245
-618 -497 -1232 -69 -168 -159 -388 -200 -490 -41 -102 -78 -188 -82 -193 -8
-8 -71 144 -406 968 -112 275 -244 600 -294 722 -50 123 -91 225 -91 228 0 3
353 5 785 5 432 0 785 -4 785 -8z m667 -7 c-6 -14 -221 -311 -492 -680 -69
-93 -166 -226 -216 -295 -315 -436 -583 -800 -586 -797 -1 2 23 63 53 137 31
74 88 216 128 315 41 99 131 320 201 490 70 171 174 426 231 568 57 143 107
263 110 268 3 5 132 9 291 9 246 0 284 -2 280 -15z"/>
</g>
</svg>
