<svg width="102" height="64" viewBox="0 0 102 64" fill="none" xmlns="http://www.w3.org/2000/svg">
<g filter="url(#filter0_i_1_4)">
<path d="M27.0314 0.937165C21.8149 1.61856 16.8922 3.58823 13.0612 6.55869C10.3952 8.61353 9.25113 9.69951 7.64523 11.7331C3.92964 16.4177 1.63101 22.0179 0.93827 28.044C0.717853 29.9817 0.780829 34.2937 1.05373 36.0291C1.58902 39.4787 2.42871 42.2149 3.94013 45.3664C6.34373 50.3917 9.94386 54.6185 14.4047 57.6422C19.6737 61.2089 26.0973 62.9763 32.2794 62.5397C38.9654 62.0713 44.9271 59.4628 49.9128 54.8208L50.7629 54.0223L51.886 55.0124C55.7695 58.4194 59.6321 60.5275 64.1874 61.688C71.86 63.6577 79.627 62.4226 86.5649 58.1426C89.3358 56.4285 92.3902 53.5645 94.5419 50.6472C98.4359 45.3664 100.556 39.2232 100.787 32.5689C101.049 24.6796 98.4359 17.0884 93.4083 11.1262C88.5172 5.32366 81.7682 1.72504 74.1901 0.894582C72.6786 0.724233 68.9316 0.809402 67.4411 1.04363C64.3343 1.54403 61.4374 2.48096 58.572 3.95022C56.0739 5.21719 54.0377 6.7184 51.8335 8.901L50.8574 9.86986L49.8918 8.93293C45.2945 4.4932 40.4768 2.05509 34.3261 1.05428C32.8777 0.809406 28.5218 0.745522 27.0314 0.937165ZM33.5389 1.91668C38.8184 2.57678 43.7831 4.78067 47.6981 8.18766C48.1914 8.62418 48.9681 9.32687 49.4089 9.75274L50.2276 10.53L46.9424 14.6929C45.1476 16.9819 42.6915 20.1015 41.5054 21.6133C40.3089 23.1252 38.1257 25.904 36.6458 27.7778C35.1658 29.6517 33.9693 31.2274 34.0008 31.2913C34.0218 31.3445 35.5647 33.4526 37.4225 35.9759C39.2908 38.4885 41.7783 41.8955 42.9644 43.5351C44.1504 45.1748 46.0397 47.7832 47.1628 49.3377C48.2859 50.8921 49.4194 52.4146 49.6818 52.734L50.1647 53.3089L49.2305 54.2033C45.0951 58.1319 39.6371 60.7191 33.8538 61.4963C32.5418 61.6667 28.3119 61.6667 27.0314 61.4857C26.4856 61.4112 25.373 61.2089 24.5648 61.0279C12.6938 58.4301 3.54129 48.0707 1.87242 35.3371C1.6625 33.6655 1.63101 29.6091 1.83043 27.9908C2.83805 19.633 6.98398 12.3293 13.4915 7.38914C16.5249 5.08943 19.7157 3.54564 23.3998 2.59807C26.9789 1.6718 30.0228 1.46951 33.5389 1.91668ZM74.8408 1.91668C81.0335 2.6939 86.8063 5.60048 91.3721 10.2638C93.5867 12.5209 95.2976 14.959 96.7775 17.9827C98.8243 22.1776 99.7374 25.9572 99.8424 30.7057C99.9263 34.1021 99.7269 35.9546 98.9817 39.0741C98.0161 43.1093 95.8854 47.5064 93.2928 50.775C92.3902 51.9248 89.9866 54.3736 88.8005 55.3744C85.1899 58.3981 80.2043 60.634 75.3656 61.3899C73.2034 61.7199 69.4669 61.7199 67.3152 61.3899C61.5633 60.4849 56.5777 58.0894 52.4108 54.2246L51.4976 53.3728L52.3058 52.3933C52.7572 51.8503 53.9432 50.2639 54.9508 48.8586C59.3802 42.6621 65.8142 33.7294 67.1892 31.8662C67.3886 31.6 67.5461 31.3126 67.5461 31.2487C67.5461 31.1742 67.0318 30.4821 66.4125 29.7156C65.7827 28.9383 64.1034 26.7983 62.6654 24.9564C61.238 23.1145 59.8105 21.2939 59.5166 20.9106C59.2122 20.5273 57.9422 18.8771 56.6827 17.2375C55.4232 15.5979 53.7333 13.4259 52.9356 12.4038C52.1379 11.3817 51.4872 10.5193 51.4976 10.4874C51.4976 10.4554 52.0749 9.88051 52.7782 9.2204C56.3468 5.86665 60.0939 3.79051 64.8801 2.54483C66.1711 2.20414 68.6692 1.79956 69.9602 1.71439C70.9573 1.65051 73.5288 1.75697 74.8408 1.91668ZM51.907 12.5209C52.4528 13.2343 53.1875 14.1818 53.5444 14.6183C53.8907 15.0655 55.0243 16.5241 56.0529 17.8763C58.6035 21.1981 60.1359 23.1784 60.7446 23.945L61.2485 24.5838L50.8364 24.6157C45.1161 24.6264 40.4138 24.6157 40.3928 24.5944C40.3299 24.5305 50.7524 11.222 50.8574 11.222C50.8889 11.2327 51.3612 11.8182 51.907 12.5209ZM57.4384 28.406L59.0233 30.7589L50.8889 30.7909C46.4071 30.8015 42.723 30.7909 42.6915 30.7589C42.639 30.7057 43.3212 29.6517 45.347 26.6386L46.0397 25.5952L50.7314 25.5739L55.4232 25.542L55.6331 25.7975C55.7485 25.9466 56.5567 27.1177 57.4384 28.406ZM44.8747 25.6485C44.8747 25.6804 44.1189 26.8516 43.1953 28.2569L41.5159 30.8122H38.4616C35.5122 30.8122 35.4177 30.8015 35.5542 30.6099C35.6277 30.5034 36.5408 29.3323 37.5799 28.0014L39.4692 25.5952H42.1772C43.6571 25.5952 44.8747 25.6165 44.8747 25.6485ZM63.9249 28.0014C64.9641 29.3216 65.8772 30.5034 65.9612 30.6099C66.0976 30.8122 66.0242 30.8122 63.1063 30.8122H60.1044L58.7714 28.8106C58.0367 27.714 57.281 26.6067 57.1025 26.3405C56.9241 26.0743 56.7352 25.7975 56.6932 25.723C56.6302 25.6272 57.1865 25.5952 59.3277 25.5952H62.0357L63.9249 28.0014ZM41.7783 32.2495C42.0617 32.899 45.7878 42.0978 47.3202 45.9307C47.8765 47.3041 48.4958 48.8373 48.7057 49.327C48.9051 49.8168 49.0626 50.2639 49.0521 50.3172C49.0311 50.3598 48.7372 50.0084 48.3908 49.5293C47.2258 47.879 42.2192 40.9905 40.2564 38.3182C38.1047 35.401 36.0265 32.5476 35.6591 32.0046L35.4177 31.6639H38.4721H41.5264L41.7783 32.2495ZM59.0443 31.7491C59.0443 31.8556 56.4728 38.3288 53.8278 44.866C53.1035 46.6547 52.1589 48.997 51.7286 50.0829C51.2982 51.1689 50.9099 52.0845 50.8679 52.1378C50.7839 52.223 50.1227 50.6046 46.6065 41.8316C45.4309 38.9038 44.0455 35.4435 43.5207 34.1446C42.9959 32.8351 42.5655 31.7491 42.5655 31.7172C42.5655 31.6852 46.2706 31.6639 50.8049 31.6639C55.3392 31.6639 59.0443 31.7065 59.0443 31.7491ZM66.0451 31.8236C65.9822 31.9727 63.7255 35.1348 60.8811 39.0635C60.1569 40.0536 59.1388 41.4697 58.614 42.2043C55.3077 46.8463 52.4948 50.7218 52.4633 50.6898C52.4528 50.6685 52.7047 50.0191 53.0196 49.2312C53.345 48.4433 53.9432 46.9315 54.3631 45.8774C54.7934 44.8234 55.738 42.4705 56.4728 40.6605C57.2075 38.8399 58.2991 36.1249 58.8973 34.6131C59.4956 33.0906 60.0204 31.813 60.0519 31.7597C60.0834 31.7065 61.4374 31.6639 63.1063 31.6639C65.6883 31.6639 66.0871 31.6852 66.0451 31.8236Z" fill="#FF383C" fill-opacity="0.2"/>
</g>
<path d="M27.0314 0.937165C21.8149 1.61856 16.8922 3.58823 13.0612 6.55869C10.3952 8.61353 9.25113 9.69951 7.64523 11.7331C3.92964 16.4177 1.63101 22.0179 0.93827 28.044C0.717853 29.9817 0.780829 34.2937 1.05373 36.0291C1.58902 39.4787 2.42871 42.2149 3.94013 45.3664C6.34373 50.3917 9.94386 54.6185 14.4047 57.6422C19.6737 61.2089 26.0973 62.9763 32.2794 62.5397C38.9654 62.0713 44.9271 59.4628 49.9128 54.8208L50.7629 54.0223L51.886 55.0124C55.7695 58.4194 59.6321 60.5275 64.1874 61.688C71.86 63.6577 79.627 62.4226 86.5649 58.1426C89.3358 56.4285 92.3902 53.5645 94.5419 50.6472C98.4359 45.3664 100.556 39.2232 100.787 32.5689C101.049 24.6796 98.4359 17.0884 93.4083 11.1262C88.5172 5.32366 81.7682 1.72504 74.1901 0.894582C72.6786 0.724233 68.9316 0.809402 67.4411 1.04363C64.3343 1.54403 61.4374 2.48096 58.572 3.95022C56.0739 5.21719 54.0377 6.7184 51.8335 8.901L50.8574 9.86986L49.8918 8.93293C45.2945 4.4932 40.4768 2.05509 34.3261 1.05428C32.8777 0.809406 28.5218 0.745522 27.0314 0.937165ZM33.5389 1.91668C38.8184 2.57678 43.7831 4.78067 47.6981 8.18766C48.1914 8.62418 48.9681 9.32687 49.4089 9.75274L50.2276 10.53L46.9424 14.6929C45.1476 16.9819 42.6915 20.1015 41.5054 21.6133C40.3089 23.1252 38.1257 25.904 36.6458 27.7778C35.1658 29.6517 33.9693 31.2274 34.0008 31.2913C34.0218 31.3445 35.5647 33.4526 37.4225 35.9759C39.2908 38.4885 41.7783 41.8955 42.9644 43.5351C44.1504 45.1748 46.0397 47.7832 47.1628 49.3377C48.2859 50.8921 49.4194 52.4146 49.6818 52.734L50.1647 53.3089L49.2305 54.2033C45.0951 58.1319 39.6371 60.7191 33.8538 61.4963C32.5418 61.6667 28.3119 61.6667 27.0314 61.4857C26.4856 61.4112 25.373 61.2089 24.5648 61.0279C12.6938 58.4301 3.54129 48.0707 1.87242 35.3371C1.6625 33.6655 1.63101 29.6091 1.83043 27.9908C2.83805 19.633 6.98398 12.3293 13.4915 7.38914C16.5249 5.08943 19.7157 3.54564 23.3998 2.59807C26.9789 1.6718 30.0228 1.46951 33.5389 1.91668ZM74.8408 1.91668C81.0335 2.6939 86.8063 5.60048 91.3721 10.2638C93.5867 12.5209 95.2976 14.959 96.7775 17.9827C98.8243 22.1776 99.7374 25.9572 99.8424 30.7057C99.9263 34.1021 99.7269 35.9546 98.9817 39.0741C98.0161 43.1093 95.8854 47.5064 93.2928 50.775C92.3902 51.9248 89.9866 54.3736 88.8005 55.3744C85.1899 58.3981 80.2043 60.634 75.3656 61.3899C73.2034 61.7199 69.4669 61.7199 67.3152 61.3899C61.5633 60.4849 56.5777 58.0894 52.4108 54.2246L51.4976 53.3728L52.3058 52.3933C52.7572 51.8503 53.9432 50.2639 54.9508 48.8586C59.3802 42.6621 65.8142 33.7294 67.1892 31.8662C67.3886 31.6 67.5461 31.3126 67.5461 31.2487C67.5461 31.1742 67.0318 30.4821 66.4125 29.7156C65.7827 28.9383 64.1034 26.7983 62.6654 24.9564C61.238 23.1145 59.8105 21.2939 59.5166 20.9106C59.2122 20.5273 57.9422 18.8771 56.6827 17.2375C55.4232 15.5979 53.7333 13.4259 52.9356 12.4038C52.1379 11.3817 51.4872 10.5193 51.4976 10.4874C51.4976 10.4554 52.0749 9.88051 52.7782 9.2204C56.3468 5.86665 60.0939 3.79051 64.8801 2.54483C66.1711 2.20414 68.6692 1.79956 69.9602 1.71439C70.9573 1.65051 73.5288 1.75697 74.8408 1.91668ZM51.907 12.5209C52.4528 13.2343 53.1875 14.1818 53.5444 14.6183C53.8907 15.0655 55.0243 16.5241 56.0529 17.8763C58.6035 21.1981 60.1359 23.1784 60.7446 23.945L61.2485 24.5838L50.8364 24.6157C45.1161 24.6264 40.4138 24.6157 40.3928 24.5944C40.3299 24.5305 50.7524 11.222 50.8574 11.222C50.8889 11.2327 51.3612 11.8182 51.907 12.5209ZM57.4384 28.406L59.0233 30.7589L50.8889 30.7909C46.4071 30.8015 42.723 30.7909 42.6915 30.7589C42.639 30.7057 43.3212 29.6517 45.347 26.6386L46.0397 25.5952L50.7314 25.5739L55.4232 25.542L55.6331 25.7975C55.7485 25.9466 56.5567 27.1177 57.4384 28.406ZM44.8747 25.6485C44.8747 25.6804 44.1189 26.8516 43.1953 28.2569L41.5159 30.8122H38.4616C35.5122 30.8122 35.4177 30.8015 35.5542 30.6099C35.6277 30.5034 36.5408 29.3323 37.5799 28.0014L39.4692 25.5952H42.1772C43.6571 25.5952 44.8747 25.6165 44.8747 25.6485ZM63.9249 28.0014C64.9641 29.3216 65.8772 30.5034 65.9612 30.6099C66.0976 30.8122 66.0242 30.8122 63.1063 30.8122H60.1044L58.7714 28.8106C58.0367 27.714 57.281 26.6067 57.1025 26.3405C56.9241 26.0743 56.7352 25.7975 56.6932 25.723C56.6302 25.6272 57.1865 25.5952 59.3277 25.5952H62.0357L63.9249 28.0014ZM41.7783 32.2495C42.0617 32.899 45.7878 42.0978 47.3202 45.9307C47.8765 47.3041 48.4958 48.8373 48.7057 49.327C48.9051 49.8168 49.0626 50.2639 49.0521 50.3172C49.0311 50.3598 48.7372 50.0084 48.3908 49.5293C47.2258 47.879 42.2192 40.9905 40.2564 38.3182C38.1047 35.401 36.0265 32.5476 35.6591 32.0046L35.4177 31.6639H38.4721H41.5264L41.7783 32.2495ZM59.0443 31.7491C59.0443 31.8556 56.4728 38.3288 53.8278 44.866C53.1035 46.6547 52.1589 48.997 51.7286 50.0829C51.2982 51.1689 50.9099 52.0845 50.8679 52.1378C50.7839 52.223 50.1227 50.6046 46.6065 41.8316C45.4309 38.9038 44.0455 35.4435 43.5207 34.1446C42.9959 32.8351 42.5655 31.7491 42.5655 31.7172C42.5655 31.6852 46.2706 31.6639 50.8049 31.6639C55.3392 31.6639 59.0443 31.7065 59.0443 31.7491ZM66.0451 31.8236C65.9822 31.9727 63.7255 35.1348 60.8811 39.0635C60.1569 40.0536 59.1388 41.4697 58.614 42.2043C55.3077 46.8463 52.4948 50.7218 52.4633 50.6898C52.4528 50.6685 52.7047 50.0191 53.0196 49.2312C53.345 48.4433 53.9432 46.9315 54.3631 45.8774C54.7934 44.8234 55.738 42.4705 56.4728 40.6605C57.2075 38.8399 58.2991 36.1249 58.8973 34.6131C59.4956 33.0906 60.0204 31.813 60.0519 31.7597C60.0834 31.7065 61.4374 31.6639 63.1063 31.6639C65.6883 31.6639 66.0871 31.6852 66.0451 31.8236Z" stroke="black" stroke-width="1.61"/>
<defs>
<filter id="filter0_i_1_4" x="0" y="0" width="101.61" height="67.41" filterUnits="userSpaceOnUse" color-interpolation-filters="sRGB">
<feFlood flood-opacity="0" result="BackgroundImageFix"/>
<feBlend mode="normal" in="SourceGraphic" in2="BackgroundImageFix" result="shape"/>
<feColorMatrix in="SourceAlpha" type="matrix" values="0 0 0 0 0 0 0 0 0 0 0 0 0 0 0 0 0 0 127 0" result="hardAlpha"/>
<feOffset dy="4"/>
<feGaussianBlur stdDeviation="2"/>
<feComposite in2="hardAlpha" operator="arithmetic" k2="-1" k3="1"/>
<feColorMatrix type="matrix" values="0 0 0 0 0 0 0 0 0 0 0 0 0 0 0 0 0 0 1 0"/>
<feBlend mode="normal" in2="shape" result="effect1_innerShadow_1_4"/>
</filter>
</defs>
</svg>
