<svg width="106" height="62" viewBox="0 0 106 62" fill="none" xmlns="http://www.w3.org/2000/svg">
<g id="Vector" filter="url(#filter0_i_6_15)">
<path d="M52.7507 52.1691C47.5752 56.6759 40.4059 60.0819 33.4654 60.5367C27.0478 60.9605 20.3797 59.2446 14.91 55.7818C10.2794 52.8462 6.54218 48.7425 4.04707 43.8635C2.4781 40.8039 1.34826 38.221 0.79258 34.8719C0.509293 33.187 0.563776 28.8753 0.792585 26.994C1.5117 21.1434 4.03618 15.758 7.89324 11.2098C9.56028 9.2355 10.7479 8.18115 13.5154 6.18616C17.4923 3.30221 22.6024 1.38992 28.0175 0.728367C29.5647 0.542306 34.0864 0.604332 35.59 0.842077C41.9749 1.81373 46.976 4.18084 51.7483 8.49125L52.2495 8.94607L52.7507 9.40088L53.2573 8.93057L53.764 8.46025C56.0521 6.34122 58.1658 4.88374 60.759 3.65367C63.7335 2.2272 66.7407 1.31756 69.9658 0.831737C71.513 0.604329 75.4027 0.521637 76.9717 0.687025C84.8384 1.49329 91.8443 4.9871 96.9217 10.6206C102.141 16.4092 104.854 23.7793 104.581 31.4388C104.342 37.8993 102.141 43.8635 98.0984 48.9906C95.8648 51.8228 92.6942 54.6034 89.8177 56.2676C82.6157 60.423 74.5529 61.622 66.5882 59.7098C61.8594 58.5831 56.7821 55.4768 52.7507 52.1691ZM52.7507 52.1691C50.8222 49.7193 35.274 30.2501 35.2522 30.1984C35.2196 30.1364 47.1503 15.9027 48.6866 14.0834L52.0969 10.0418L51.2471 9.28718C50.7895 8.87371 49.9832 8.19149 49.4711 7.76768C45.407 4.45993 40.2533 2.32023 34.7728 1.67935C31.1228 1.24521 27.963 1.44161 24.2476 2.3409C20.4232 3.26087 17.111 4.75969 13.9621 6.99243C7.20681 11.7887 2.90303 18.8797 1.85704 26.994C1.65003 28.5652 1.68271 32.5035 1.90063 34.1263C3.63304 46.4891 13.1341 56.5467 25.457 59.0689C26.296 59.2446 27.4509 59.441 28.0175 59.5134C29.3468 59.6891 33.7377 59.6891 35.0997 59.5237C44.1 57.6968 48.0794 54.8061 52.7507 50.9226M52.7507 52.1691C52.7507 52.1691 68.277 32.5655 69.7043 30.7566M52.7507 50.9226C57.422 54.8061 62.6 58.6646 69.8351 59.4203C72.0687 59.7408 75.9475 59.7408 78.192 59.4203C83.2149 58.6864 88.3904 56.5157 92.1385 53.5801C93.3697 52.6084 95.8648 50.231 96.8018 49.1146C99.493 45.9412 101.705 41.6722 102.707 37.7545C103.481 34.7259 103.688 32.9273 103.601 29.6299C103.492 25.0197 102.544 21.3501 100.419 17.2775C98.8829 14.3418 97.1069 11.9747 94.8079 9.78335C90.0683 5.25586 84.0757 2.43393 77.6472 1.67935C76.2853 1.5243 73.6158 1.42093 72.5808 1.48295C71.2406 1.56565 68.6474 1.95844 67.3073 2.28921C62.3388 3.49861 58.4491 5.51428 54.7446 8.77035C54.0146 9.41123 53.4153 9.9694 53.4153 10.0004C54.908 11.7887 68.2443 27.914 68.898 28.6686C69.5409 29.4128 70.0748 30.0847 70.0748 30.157C70.0748 30.2191 69.9113 30.4982 69.7043 30.7566M52.7507 50.9226L36.6 30.6H40.6H44.0766M52.7507 50.9226L68.898 30.6H61.0316M52.7507 50.9226V49.471M69.7043 30.7566L64.3546 24.6682M35.7754 30.8833L40.9289 24.6682L52.7507 10.7613L64.3546 24.6682M64.3546 24.6682L57.8867 24.6682M40.9289 24.6682L47.7496 24.6682M57.8867 24.6682L61.0316 30.6M57.8867 24.6682L52.6199 24.6476L47.7496 24.6682M61.0316 30.6H52.7438H44.0766M61.0316 30.6L52.7507 49.471M44.0766 30.6L47.7496 24.6682M44.0766 30.6L52.7507 49.471M41.7965 23.7275L63.5961 23.7068" stroke="black" stroke-width="1.2"/>
</g>
<defs>
<filter id="filter0_i_6_15" x="0" y="0" width="105.2" height="65.2" filterUnits="userSpaceOnUse" color-interpolation-filters="sRGB">
<feFlood flood-opacity="0" result="BackgroundImageFix"/>
<feBlend mode="normal" in="SourceGraphic" in2="BackgroundImageFix" result="shape"/>
<feColorMatrix in="SourceAlpha" type="matrix" values="0 0 0 0 0 0 0 0 0 0 0 0 0 0 0 0 0 0 127 0" result="hardAlpha"/>
<feOffset dy="4"/>
<feGaussianBlur stdDeviation="2"/>
<feComposite in2="hardAlpha" operator="arithmetic" k2="-1" k3="1"/>
<feColorMatrix type="matrix" values="0 0 0 0 0 0 0 0 0 0 0 0 0 0 0 0 0 0 0.25 0"/>
<feBlend mode="normal" in2="shape" result="effect1_innerShadow_6_15"/>
</filter>
</defs>
</svg>
