<svg width="86" height="53" viewBox="0 0 86 53" fill="none" xmlns="http://www.w3.org/2000/svg">
<path d="M23.9017 0.643674C18.5784 1.01003 13.926 2.83464 9.87223 6.13187C9.02108 6.82149 7.13846 8.71794 6.40273 9.62306C1.83683 15.2262 -0.218906 22.7473 0.899125 29.7728C1.66371 34.5929 3.49584 38.7306 6.53977 42.4876C7.23223 43.3424 8.92731 45.0449 9.82174 45.7776C13.2335 48.5936 17.1286 50.3751 21.4493 51.1006C25.1352 51.7256 28.9148 51.4742 32.5935 50.3823C35.8538 49.4053 39.4027 47.358 42.0715 44.9156C42.3456 44.6642 42.5837 44.4631 42.6125 44.4631C42.6414 44.4631 42.9948 44.7576 43.4132 45.1168C47.3804 48.572 51.8886 50.6121 57.1181 51.3018C58.0341 51.4239 61.7633 51.4239 62.6722 51.3018C66.6105 50.7774 69.9358 49.5562 73.1672 47.4442C74.4007 46.6397 75.2374 45.9932 76.24 45.0665C80.6112 41.0365 83.3738 35.8285 84.3043 29.8805C84.5351 28.4079 84.5928 27.6106 84.6 25.9655C84.6 24.2846 84.5279 23.2861 84.3043 21.9212C83.0925 14.4216 78.8512 8.01395 72.5469 4.14204C68.8105 1.8505 64.4971 0.63649 60.0394 0.622123C53.7568 0.600573 47.8925 2.9855 43.3987 7.3818L42.6269 8.14325L41.7109 7.25968C39.1286 4.77419 36.2001 2.9855 32.7738 1.8074C30.1411 0.909464 26.6788 0.449719 23.9017 0.643674ZM28.2296 1.54161C30.7614 1.8936 33.1201 2.60477 35.3706 3.70385C37.5561 4.76701 39.3522 6.0313 41.4224 7.98522L42.1365 8.65328L40.9535 10.1331C40.3043 10.952 38.9627 12.6258 37.9673 13.8685C35.0388 17.5321 33.8197 19.0478 32.8604 20.2187C32.6296 20.4917 31.6774 21.677 30.7397 22.8407C29.802 24.0044 28.922 25.082 28.7922 25.2328C28.6624 25.3765 28.5542 25.5417 28.5542 25.592C28.5542 25.671 29.0086 26.3103 30.1699 27.8692C30.9056 28.8605 31.4971 29.665 33.762 32.7539C34.2958 33.4867 35.421 35.0168 36.2578 36.1661C37.1017 37.3083 38.0538 38.6157 38.3784 39.0682C39.785 41.0006 41.1194 42.739 41.5666 43.2347C41.8263 43.522 42.0427 43.8022 42.0427 43.8453C42.0427 43.9387 40.8092 45.0521 40.023 45.6627C37.1378 47.9183 33.6899 49.5059 30.0617 50.2386C28.5902 50.5403 27.3207 50.6552 25.4886 50.6552C23.6853 50.6552 22.8486 50.5906 21.305 50.3104C17.6047 49.6496 14.0991 48.1195 11.1417 45.8782C8.79748 44.1039 6.62633 41.6902 5.07551 39.1473C2.66634 35.2035 1.36076 30.5342 1.36076 25.8578C1.36076 23.164 1.74306 20.8509 2.63027 18.0996C4.9601 10.8874 10.4132 5.21238 17.4171 2.72689C19.343 2.04446 20.8073 1.72838 23.5771 1.40513C24.2047 1.33329 27.4073 1.42668 28.2296 1.54161ZM62.2466 1.46978C68.1181 2.08756 73.2754 4.6808 77.3292 9.04838C79.421 11.2968 81.1449 14.0984 82.2125 16.979C83.8282 21.3322 84.2538 25.398 83.5469 29.8662C83.1285 32.5169 82.4216 34.7581 81.2026 37.2436C80.0413 39.6214 78.4328 41.8555 76.4925 43.7806C73.9246 46.3236 70.9672 48.1985 67.7141 49.3335C64.7207 50.3823 61.8643 50.7989 58.7554 50.6409C57.2623 50.5619 56.6925 50.4972 55.3509 50.2386C51.0519 49.4053 47.0774 47.4083 43.7233 44.3984C43.4348 44.1398 43.1968 43.9027 43.1968 43.8668C43.1968 43.8381 43.4781 43.4933 43.8171 43.1126C44.4446 42.4014 44.8919 41.8267 46.5942 39.528C47.6328 38.1272 47.6761 38.0697 49.2919 35.8429C50.9437 33.5729 51.5423 32.7468 52.5017 31.425C53.9804 29.4064 54.5069 28.6737 55.2715 27.6177C55.6682 27.0646 56.1515 26.4109 56.3391 26.1595C56.5266 25.9081 56.6853 25.6638 56.6853 25.6135C56.6853 25.5633 56.5122 25.319 56.303 25.0604C56.0938 24.809 55.1994 23.7099 54.3266 22.6252C53.4466 21.5405 52.2276 20.032 51.6217 19.2849C50.5974 18.0278 48.2892 15.14 44.661 10.5713C43.8532 9.56559 43.1968 8.69638 43.1968 8.65328C43.1968 8.55271 44.6466 7.19503 45.4689 6.51978C48.9817 3.66793 53.0932 1.96544 57.6951 1.47696C58.9141 1.34766 61.0492 1.34047 62.2466 1.46978ZM43.2328 9.92476C43.5286 10.2911 44.4302 11.4189 45.2309 12.4246C46.0315 13.4303 46.9187 14.5438 47.2001 14.9029C47.4814 15.2549 47.842 15.7147 48.0007 15.9158C48.2676 16.2606 50.0132 18.4229 50.9797 19.6081C51.2178 19.9027 51.4197 20.1684 51.4197 20.1972C51.4197 20.2331 47.4597 20.2546 42.6197 20.2546C37.7797 20.2546 33.8197 20.2331 33.8197 20.2044C33.8197 20.1828 34.0073 19.9314 34.2381 19.6512C35.0676 18.6384 41.444 10.6862 42.324 9.56559C42.4538 9.40037 42.5909 9.26388 42.6269 9.26388C42.663 9.26388 42.9371 9.56559 43.2328 9.92476ZM37.6932 21.0736C37.7292 21.1023 37.044 22.1224 35.5725 24.2415L34.9233 25.1753L32.3483 25.1969L29.7732 25.2113L29.8814 25.0604C29.9391 24.9742 30.6748 24.0404 31.526 22.9844L33.0624 21.0592L33.8197 21.0233C34.707 20.9874 37.6499 21.0233 37.6932 21.0736ZM47.0558 21.6195C47.301 21.9571 47.741 22.5821 48.0368 23.0203C48.3397 23.4513 48.8014 24.1266 49.0682 24.5073L49.5515 25.2113H42.6558H35.7601L36.7338 23.7889C37.2676 23.0131 37.9096 22.0793 38.162 21.7129C38.4361 21.3178 38.6742 21.0376 38.7607 21.0233C38.8401 21.0089 40.6361 21.0017 42.7568 21.0017L46.6086 21.0089L47.0558 21.6195ZM52.1194 21.0664C52.1627 21.0951 52.6387 21.6626 53.1725 22.3235C53.7063 22.9844 54.442 23.8895 54.8027 24.3277C55.1633 24.7731 55.4591 25.1538 55.4591 25.1753C55.4591 25.1969 54.3194 25.2041 52.9273 25.1969L50.3882 25.1753L50.0853 24.7443C48.7653 22.8623 47.5968 21.131 47.5968 21.052C47.5968 20.9658 51.9751 20.9802 52.1194 21.0664ZM34.8801 26.0158C34.9233 26.0661 35.1037 26.4827 35.284 26.9353C35.7745 28.1565 37.8158 33.1562 38.3279 34.4062C38.4217 34.6217 38.6742 35.2394 38.8906 35.771C39.1069 36.3026 39.7345 37.8255 40.2755 39.1473C40.8165 40.469 41.2781 41.604 41.2997 41.6615C41.3574 41.8483 40.8958 41.2951 40.225 40.3685C38.9194 38.587 38.7174 38.3068 37.8807 37.1718C37.4119 36.5325 36.8276 35.7423 36.5824 35.4118C36.3371 35.0742 35.4355 33.8458 34.5843 32.6821C32.8388 30.3116 31.3673 28.3074 30.3791 26.9497C30.0184 26.4468 29.7371 26.0158 29.7515 25.9871C29.7732 25.9512 30.9201 25.9296 32.2978 25.9296C34.2237 25.9296 34.8296 25.9512 34.8801 26.0158ZM49.6164 26.0015C49.6164 26.0374 49.2053 27.079 48.7076 28.3145C47.2938 31.7985 46.2984 34.2625 46.1181 34.6935C46.0243 34.909 45.7719 35.5268 45.5555 36.0584C44.4951 38.6444 42.7496 42.8396 42.6919 42.9545C42.6486 43.0264 42.6053 42.9833 42.5115 42.7749C42.324 42.3296 41.3935 40.0596 40.0591 36.7767C39.6335 35.7279 38.9915 34.1619 38.6381 33.2927C38.2774 32.4235 37.7509 31.1305 37.4624 30.4193C36.1929 27.3017 35.8178 26.3822 35.724 26.2098C35.6735 26.102 35.6519 26.0015 35.6735 25.9727C35.7529 25.9009 49.6164 25.9224 49.6164 26.0015ZM55.4951 26.0015C55.5168 26.0374 55.4446 26.1954 55.3292 26.3391C55.2138 26.4899 54.7305 27.1436 54.2689 27.7973C53.4394 28.9539 52.6459 30.0529 51.7948 31.2095C50.6407 32.7827 47.7771 36.7121 47.1423 37.6028C46.7456 38.1559 46.1686 38.9318 45.8728 39.334C45.5699 39.7291 45.0361 40.4331 44.6899 40.9C44.3364 41.3598 44.0335 41.7333 44.0191 41.7118C44.0046 41.6974 44.2355 41.094 44.5384 40.3613C44.8414 39.6357 45.2597 38.6157 45.4689 38.1057C45.6853 37.5884 46.2191 36.2954 46.6591 35.2323C47.0991 34.1619 48.1161 31.6764 48.9096 29.701C49.7102 27.7255 50.3882 26.0661 50.4315 26.0158C50.5181 25.9081 55.423 25.8865 55.4951 26.0015Z" fill="black" stroke="black" stroke-width="1.2"/>
</svg>
