<svg width="84" height="51" viewBox="0 0 84 51" fill="none" xmlns="http://www.w3.org/2000/svg">
<path d="M23.3017 0.0440645C17.9784 0.410423 13.326 2.23503 9.27222 5.53226C8.42108 6.22188 6.53846 8.11833 5.80272 9.02345C1.23682 14.6266 -0.818912 22.1477 0.299119 29.1732C1.06371 33.9933 2.89584 38.131 5.93977 41.888C6.63223 42.7428 8.32731 44.4453 9.22173 45.178C12.6335 47.994 16.5286 49.7755 20.8493 50.501C24.5352 51.126 28.3148 50.8746 31.9935 49.7827C35.2538 48.8057 38.8027 46.7584 41.4715 44.316C41.7456 44.0646 41.9837 43.8635 42.0125 43.8635C42.0414 43.8635 42.3948 44.158 42.8132 44.5172C46.7804 47.9724 51.2886 50.0125 56.5181 50.7022C57.4341 50.8243 61.1633 50.8243 62.0722 50.7022C66.0105 50.1778 69.3358 48.9566 72.5672 46.8446C73.8007 46.0401 74.6374 45.3935 75.64 44.4669C80.0112 40.4369 82.7738 35.2289 83.7043 29.2809C83.9351 27.8083 83.9928 27.0109 84 25.3659C84 23.685 83.9279 22.6865 83.7043 21.3216C82.4925 13.822 78.2512 7.41434 71.9469 3.54243C68.2105 1.25089 63.8971 0.036881 59.4394 0.022514C53.1568 0.000963444 47.2925 2.38589 42.7987 6.78219L42.0269 7.54365L41.1109 6.66007C38.5286 4.17458 35.6001 2.38589 32.1738 1.20779C29.541 0.309854 26.0788 -0.14989 23.3017 0.0440645ZM27.6296 0.942003C30.1614 1.29399 32.5201 2.00516 34.7706 3.10424C36.9561 4.1674 38.7522 5.43169 40.8223 7.38561L41.5364 8.05367L40.3535 9.53348C39.7043 10.3524 38.3627 12.0262 37.3673 13.2689C34.4387 16.9325 33.2197 18.4482 32.2604 19.6191C32.0296 19.8921 31.0774 21.0774 30.1397 22.2411C29.202 23.4048 28.322 24.4824 28.1922 24.6332C28.0624 24.7769 27.9542 24.9421 27.9542 24.9924C27.9542 25.0714 28.4086 25.7107 29.5699 27.2696C30.3056 28.2609 30.8971 29.0654 33.162 32.1543C33.6958 32.8871 34.821 34.4171 35.6578 35.5665C36.5017 36.7087 37.4538 38.0161 37.7784 38.4686C39.185 40.401 40.5194 42.1394 40.9666 42.6351C41.2263 42.9224 41.4427 43.2026 41.4427 43.2457C41.4427 43.3391 40.2092 44.4525 39.423 45.0631C36.5378 47.3187 33.0899 48.9063 29.4617 49.639C27.9902 49.9407 26.7207 50.0556 24.8886 50.0556C23.0853 50.0556 22.2486 49.991 20.705 49.7108C17.0047 49.0499 13.4991 47.5199 10.5417 45.2786C8.19747 43.5043 6.02633 41.0906 4.47551 38.5477C2.06633 34.6039 0.760758 29.9346 0.760758 25.2582C0.760758 22.5644 1.14305 20.2513 2.03026 17.5C4.3601 10.2877 9.81321 4.61277 16.8171 2.12728C18.743 1.44485 20.2073 1.12877 22.9771 0.805516C23.6047 0.733681 26.8073 0.827067 27.6296 0.942003ZM61.6466 0.870168C67.5181 1.48795 72.6754 4.0812 76.7292 8.44877C78.821 10.6972 80.5449 13.4988 81.6125 16.3794C83.2282 20.7326 83.6538 24.7984 82.9469 29.2666C82.5285 31.9173 81.8216 34.1585 80.6026 36.644C79.4413 39.0218 77.8328 41.2558 75.8925 43.181C73.3246 45.724 70.3672 47.5989 67.1141 48.7339C64.1207 49.7827 61.2643 50.1993 58.1554 50.0413C56.6623 49.9623 56.0925 49.8976 54.7509 49.639C50.4518 48.8057 46.4774 46.8087 43.1233 43.7988C42.8348 43.5402 42.5968 43.3031 42.5968 43.2672C42.5968 43.2385 42.8781 42.8937 43.2171 42.513C43.8446 41.8018 44.2919 41.2271 45.9941 38.9284C47.0328 37.5276 47.0761 37.4701 48.6918 35.2432C50.3436 32.9733 50.9423 32.1472 51.9017 30.8254C53.3804 28.8068 53.9069 28.0741 54.6715 27.0181C55.0682 26.465 55.5515 25.8113 55.7391 25.5599C55.9266 25.3085 56.0853 25.0642 56.0853 25.0139C56.0853 24.9636 55.9122 24.7194 55.703 24.4608C55.4938 24.2094 54.5994 23.1103 53.7266 22.0256C52.8466 20.9409 51.6276 19.4323 51.0217 18.6853C49.9974 17.4282 47.6892 14.5404 44.061 9.97167C43.2532 8.96598 42.5968 8.09678 42.5968 8.05367C42.5968 7.95311 44.0466 6.59542 44.8689 5.92017C48.3817 3.06832 52.4932 1.36583 57.0951 0.877351C58.3141 0.748048 60.4492 0.740865 61.6466 0.870168ZM42.6328 9.32516C42.9286 9.69151 43.8302 10.8193 44.6309 11.825C45.4315 12.8307 46.3187 13.9441 46.6 14.3033C46.8814 14.6553 47.242 15.1151 47.4007 15.3162C47.6676 15.661 49.4132 17.8232 50.3797 19.0085C50.6177 19.303 50.8197 19.5688 50.8197 19.5976C50.8197 19.6335 46.8597 19.655 42.0197 19.655C37.1797 19.655 33.2197 19.6335 33.2197 19.6048C33.2197 19.5832 33.4073 19.3318 33.6381 19.0516C34.4676 18.0387 40.844 10.0866 41.724 8.96598C41.8538 8.80076 41.9909 8.66427 42.0269 8.66427C42.063 8.66427 42.3371 8.96598 42.6328 9.32516ZM37.0932 20.474C37.1292 20.5027 36.444 21.5227 34.9725 23.6419L34.3233 24.5757L31.7483 24.5973L29.1732 24.6117L29.2814 24.4608C29.3391 24.3746 30.0748 23.4407 30.926 22.3848L32.4624 20.4596L33.2197 20.4237C34.1069 20.3878 37.0499 20.4237 37.0932 20.474ZM46.4558 21.0199C46.701 21.3575 47.141 21.9825 47.4368 22.4207C47.7397 22.8517 48.2014 23.5269 48.4682 23.9077L48.9515 24.6117H42.0558H35.1601L36.1338 23.1893C36.6676 22.4135 37.3096 21.4796 37.562 21.1133C37.8361 20.7182 38.0742 20.438 38.1607 20.4237C38.2401 20.4093 40.0361 20.4021 42.1568 20.4021L46.0086 20.4093L46.4558 21.0199ZM51.5194 20.4668C51.5627 20.4955 52.0387 21.063 52.5725 21.7239C53.1063 22.3848 53.842 23.2899 54.2027 23.7281C54.5633 24.1735 54.8591 24.5542 54.8591 24.5757C54.8591 24.5973 53.7194 24.6045 52.3273 24.5973L49.7882 24.5757L49.4853 24.1447C48.1653 22.2626 46.9968 20.5314 46.9968 20.4524C46.9968 20.3662 51.3751 20.3806 51.5194 20.4668ZM34.2801 25.4162C34.3233 25.4665 34.5037 25.8831 34.684 26.3357C35.1745 27.5569 37.2158 32.5566 37.7279 33.8065C37.8217 34.022 38.0742 34.6398 38.2905 35.1714C38.5069 35.703 39.1345 37.2259 39.6755 38.5477C40.2164 39.8694 40.6781 41.0044 40.6997 41.0619C40.7574 41.2487 40.2958 40.6955 39.625 39.7689C38.3194 37.9873 38.1174 37.7072 37.2807 36.5722C36.8119 35.9329 36.2276 35.1427 35.9824 34.8122C35.7371 34.4746 34.8355 33.2462 33.9843 32.0825C32.2388 29.7119 30.7673 27.7077 29.7791 26.3501C29.4184 25.8472 29.1371 25.4162 29.1515 25.3875C29.1732 25.3516 30.3201 25.33 31.6978 25.33C33.6237 25.33 34.2296 25.3516 34.2801 25.4162ZM49.0164 25.4018C49.0164 25.4378 48.6053 26.4794 48.1076 27.7149C46.6938 31.1989 45.6984 33.6629 45.5181 34.0939C45.4243 34.3094 45.1719 34.9272 44.9555 35.4588C43.8951 38.0448 42.1496 42.24 42.0919 42.3549C42.0486 42.4268 42.0053 42.3837 41.9115 42.1753C41.724 41.73 40.7935 39.46 39.4591 36.1771C39.0335 35.1283 38.3915 33.5623 38.0381 32.6931C37.6774 31.8239 37.1509 30.5309 36.8624 29.8197C35.5928 26.7021 35.2178 25.7826 35.124 25.6102C35.0735 25.5024 35.0519 25.4018 35.0735 25.3731C35.1528 25.3013 49.0164 25.3228 49.0164 25.4018ZM54.8951 25.4018C54.9168 25.4378 54.8446 25.5958 54.7292 25.7395C54.6138 25.8903 54.1305 26.544 53.6689 27.1977C52.8394 28.3543 52.0459 29.4533 51.1948 30.6099C50.0407 32.1831 47.1771 36.1125 46.5423 37.0032C46.1456 37.5563 45.5686 38.3322 45.2728 38.7344C44.9699 39.1295 44.4361 39.8335 44.0899 40.3004C43.7364 40.7602 43.4335 41.1337 43.4191 41.1122C43.4046 41.0978 43.6355 40.4944 43.9384 39.7617C44.2414 39.0361 44.6597 38.0161 44.8689 37.5061C45.0853 36.9888 45.6191 35.6958 46.0591 34.6326C46.4991 33.5623 47.5161 31.0768 48.3096 29.1013C49.1102 27.1259 49.7882 25.4665 49.8315 25.4162C49.9181 25.3085 54.823 25.2869 54.8951 25.4018Z" fill="black"/>
</svg>
